<?xml version="1.0" encoding="utf-8"?>
<!-- Uploaded to: SVG Repo, www.svgrepo.com, Generator: SVG Repo Mixer Tools -->
<svg width="800px" height="800px" viewBox="0 0 24 24" fill="none" xmlns="http://www.w3.org/2000/svg">
<g id="style=fill">
<g id="wifi-twowave">
<path id="Subtract" fill-rule="evenodd" clip-rule="evenodd" d="M7.25 1.25C3.93629 1.25 1.25 3.93629 1.25 7.25V16.75C1.25 20.0637 3.93629 22.75 7.25 22.75H16.75C20.0637 22.75 22.75 20.0637 22.75 16.75V7.25C22.75 3.93629 20.0637 1.25 16.75 1.25H7.25ZM5.45845 11.0506C9.43044 7.98313 14.5697 7.98313 18.5417 11.0506C18.8695 11.3038 19.3405 11.2433 19.5937 10.9154C19.8469 10.5876 19.7864 10.1166 19.4585 9.86342C14.9465 6.37886 9.05368 6.37886 4.54162 9.86342C4.21379 10.1166 4.15327 10.5876 4.40644 10.9154C4.65962 11.2433 5.13062 11.3038 5.45845 11.0506ZM15.1808 14.041C13.2462 12.5425 10.747 12.5425 8.81234 14.041C8.48488 14.2947 8.01379 14.2349 7.76014 13.9074C7.50648 13.5799 7.56632 13.1088 7.89378 12.8552C10.3692 10.9378 13.624 10.9378 16.0994 12.8552C16.4268 13.1088 16.4867 13.5799 16.233 13.9074C15.9794 14.2349 15.5083 14.2947 15.1808 14.041ZM12 15C11.1716 15 10.5 15.6716 10.5 16.5C10.5 17.3284 11.1716 18 12 18H12.0075C12.8359 18 13.5075 17.3284 13.5075 16.5C13.5075 15.6716 12.8359 15 12.0075 15H12Z" fill="#000000"/>
</g>
</g>
</svg>